<?xml version="1.0" encoding="utf-8"?>
<!-- Generator: Adobe Illustrator 24.0.1, SVG Export Plug-In . SVG Version: 6.00 Build 0)  -->
<svg version="1.1" id="Layer_1" xmlns="http://www.w3.org/2000/svg" xmlns:xlink="http://www.w3.org/1999/xlink" x="0px" y="0px"
	 viewBox="0 0 2000 512" style="enable-background:new 0 0 2000 512;" xml:space="preserve">
<style type="text/css">
	.st0{fill:#808080;}
	.st1{fill:#333333;}
</style>
<path id="lurch" class="st0" d="M915.2,193.9c0,0.2,0,0.4,0.1,0.6c0,0.1,0,0.1,0.1,0.2c0.1,0.2,0.3,0.4,0.5,0.5h0l0,0l30,17.6
	c0,0,0,0,0.1,0c0.2,0.1,0.5,0.2,0.7,0.2c0.3,0,0.5-0.1,0.7-0.2c0,0,0.1,0,0.1,0l29.4-17.6c0.2-0.1,0.4-0.3,0.5-0.6
	c0-0.1,0.1-0.1,0.1-0.2c0.1-0.2,0.1-0.4,0.1-0.6c0,0,0-0.1,0-0.1c0,0,0,0,0-0.1c0-0.2-0.1-0.5-0.2-0.7L948,143.8c0,0,0,0,0-0.1
	c0-0.1-0.1-0.1-0.1-0.1c0-0.1-0.1-0.1-0.2-0.2c0,0-0.1-0.1-0.1-0.1c0,0,0,0,0-0.1c0,0-0.1,0-0.1,0c-0.1,0-0.1-0.1-0.2-0.1
	c-0.1,0-0.1,0-0.2-0.1s-0.1,0-0.2,0c0,0-0.1,0-0.1,0c0,0-0.1,0-0.1,0c-0.1,0-0.1,0-0.2,0c-0.1,0-0.1,0-0.2,0.1
	c-0.1,0-0.1,0.1-0.2,0.1c0,0-0.1,0-0.1,0c0,0,0,0,0,0c-0.1,0-0.1,0.1-0.2,0.1c-0.1,0.1-0.1,0.1-0.2,0.2c0,0.1-0.1,0.1-0.1,0.1
	c0,0,0,0,0,0.1l-30,49.3c-0.1,0.2-0.2,0.4-0.2,0.7c0,0,0,0,0,0.1C915.2,193.9,915.2,193.9,915.2,193.9z M1081.6,162.5
	c-0.5-0.5-1.3-0.6-2-0.3l-28.9,17.1l-28.9-17.1c-0.6-0.4-1.5-0.3-2,0.3c-0.5,0.6-0.5,1.4-0.1,2l29.7,41.9c0,0,0.1,0,0.1,0.1
	c0.1,0.1,0.1,0.1,0.2,0.2c0,0,0,0.1,0.1,0.1c0,0,0.1,0,0.1,0c0.1,0,0.1,0.1,0.2,0.1c0.2,0.1,0.4,0.2,0.7,0.2l0,0l0,0l0,0l0,0l0,0
	l0,0c0.2,0,0.5-0.1,0.7-0.2c0.1,0,0.1-0.1,0.2-0.1c0,0,0.1,0,0.1,0c0,0,0.1-0.1,0.1-0.1c0.1-0.1,0.1-0.1,0.2-0.2c0,0,0.1,0,0.1-0.1
	l29.7-41.9C1082.2,163.9,1082.1,163.1,1081.6,162.5z M1059.3,260.9l-26.1,0.9l0.9-8.6l-16.9,0.8l-1.5,18.6l-22.6-1.6l1.3-18.3
	l-33.9-2.5l-0.4,11.8l-21.3,0.3l-1.9-15.7l-19.7-3.1c4,11.7,9.4,32.1,13.6,35.6c4.1,3.5,15.2,8,23.1,10.9l-2.3-13.2l28.4,2.1l1,13.3
	l42,0.6l2.2-16.3l24.7,1.2l-2.6,11.5c8.3-3.4,17.2-7.3,19.6-9.7c4.1-4.4,10.1-27,13.3-36l-19.3,3.1L1059.3,260.9z M1063.7,335.4
	h-16.3h-16.3h-16.3h-16.3h-16.3h-16.3h-16.3h-16.3c-3.6,0-7-0.4-10.4-1c-3.4-0.7-6.6-1.7-9.7-3c-3.1-1.3-6-2.9-8.8-4.8
	c-2.8-1.9-5.3-4-7.6-6.3c-2.3-2.3-4.4-4.9-6.3-7.6c-1.9-2.8-3.5-5.7-4.8-8.8s-2.3-6.3-3-9.7c-0.7-3.4-1.1-6.8-1.1-10.4v-23.7v-23.7
	v-23.7v-80.5c0-6.6,1.6-13.1,4.8-18.9l14.7-27.5c4.9-6.4,14.5-6.4,19.4,0l16.5,30.8c1.3,2.4,4.7,2.4,5.9,0l16.5-30.8
	c4.9-6.4,14.5-6.4,19.4,0l16.5,30.8c1.3,2.4,4.7,2.4,5.9,0l16.5-30.8c4.9-6.4,14.5-6.4,19.4,0l16.5,30.8c1.3,2.4,4.7,2.4,5.9,0
	l16.5-30.8c4.9-6.4,14.5-6.4,19.4,0l14.7,27.5c3.1,5.8,4.8,12.3,4.8,18.9v80.5v23.7v23.7v23.7c0,3.6-0.4,7-1.1,10.4s-1.7,6.6-3,9.7
	s-2.9,6-4.8,8.8s-4,5.3-6.3,7.6c-2.3,2.3-4.9,4.5-7.6,6.3c-2.8,1.9-5.7,3.5-8.8,4.8c-3.1,1.3-6.3,2.3-9.7,3
	S1067.3,335.4,1063.7,335.4z M1119.7,256.2l16.3,1l1-13.7l13.5,1l-1,39.8l-12.9-1l-1-13.1l-16.9-1L1119.7,256.2z M877.6,271.5
	l-16.3-1v13.7l-14.5-2l2-38.8h14.9l-2,13.1l16.9,1L877.6,271.5z"/>
<g id="title">
	<path id="h" class="st1" d="M1114.1,326.4c9.8,0,17.8,8,17.8,17.8v15.6l14.9-11.1c11.5,0,20.8,9.3,20.8,20.8V411h8.9l-5.9,17.8h-3
		c-9.8,0-17.8-8-17.8-17.8v-41.6c0-1.6-1.3-3-3-3h-14.9v59.4h-17.8v-81.6h-8.9l5.9-17.8L1114.1,326.4L1114.1,326.4z"/>
	<path id="c" class="st1" d="M1102.3,348.6l-5.9,17.8h-23.8v32.7c0,6.6,5.3,11.9,11.9,11.9h17.8l-11.9,17.8h-5.9
		c-16.4,0-29.7-13.3-29.7-29.7v-28.2l29.7-22.3L1102.3,348.6L1102.3,348.6z"/>
	<path id="r" class="st1" d="M998.3,348.6c7.2,0,13.4,4.3,16.2,10.5l10.5-10.5c11.5,0,20.8,9.3,20.8,20.8v5.9l-17.8,5.9v-11.9
		c0-1.6-1.3-3-3-3h-8.9v56.4l-17.8,5.9v-62.4h-8.9l5.9-17.8H998.3z"/>
	<path id="u" class="st1" d="M977.6,428.8c-7.8,0-14.4-5-16.8-11.9l-15.9,11.9c-11.5,0-20.8-9.3-20.8-20.8v-53.4l17.8-5.9V408
		c0,1.6,1.3,3,3,3h14.8v-59.4h17.8V411h8.9l-5.9,17.8H977.6z"/>
	<polygon id="L" class="st1" points="873.7,403.6 867.7,409.5 915.2,409.5 909.3,427.3 846.9,427.3 852.9,409.5 855.8,409.5 
		855.8,384.3 846.9,384.3 852.9,366.5 855.8,366.5 855.8,330.8 873.7,324.9 	"/>
</g>
</svg>
