<?xml version="1.0" encoding="utf-8"?>
<!-- Generator: Adobe Illustrator 24.0.1, SVG Export Plug-In . SVG Version: 6.00 Build 0)  -->
<svg version="1.1" id="Layer_1" xmlns="http://www.w3.org/2000/svg" xmlns:xlink="http://www.w3.org/1999/xlink" x="0px" y="0px"
	 viewBox="0 0 512 512" style="enable-background:new 0 0 512 512;" xml:space="preserve">
<style type="text/css">
	.st0{fill:#808080;}
	.st1{fill:#333333;}
</style>
<path id="lurch" class="st0" d="M171.19,193.93c0.01,0.2,0.05,0.4,0.13,0.58c0.03,0.06,0.05,0.12,0.08,0.18
	c0.13,0.21,0.29,0.4,0.51,0.54c0,0,0.01,0,0.01,0c0,0,0.01,0.01,0.01,0.01l29.97,17.56c0.02,0.01,0.05,0.01,0.08,0.02
	c0.22,0.11,0.45,0.19,0.72,0.19s0.5-0.08,0.72-0.2c0.03-0.01,0.06-0.01,0.08-0.02l29.44-17.56c0.23-0.14,0.39-0.33,0.52-0.55
	c0.04-0.06,0.06-0.11,0.08-0.18c0.08-0.19,0.13-0.38,0.13-0.58c0-0.04,0.03-0.08,0.03-0.12c0-0.02-0.02-0.03-0.02-0.05
	c-0.02-0.23-0.08-0.46-0.2-0.67l-29.44-49.28c-0.01-0.02-0.03-0.03-0.04-0.05c-0.04-0.06-0.08-0.1-0.12-0.15
	c-0.05-0.06-0.11-0.12-0.17-0.18c-0.05-0.04-0.09-0.08-0.14-0.11c-0.02-0.01-0.03-0.03-0.05-0.05c-0.03-0.02-0.07-0.02-0.11-0.04
	c-0.07-0.04-0.14-0.06-0.21-0.09c-0.06-0.02-0.12-0.04-0.19-0.06c-0.07-0.02-0.13-0.02-0.2-0.02c-0.04,0-0.07-0.02-0.1-0.02
	c-0.04,0-0.06,0.02-0.1,0.02c-0.06,0.01-0.12,0.01-0.19,0.02c-0.07,0.01-0.14,0.04-0.21,0.06c-0.07,0.03-0.14,0.05-0.21,0.09
	c-0.03,0.02-0.07,0.02-0.1,0.03c-0.02,0.01-0.03,0.03-0.05,0.04c-0.06,0.04-0.1,0.08-0.16,0.13c-0.06,0.05-0.12,0.11-0.17,0.17
	c-0.04,0.05-0.08,0.09-0.11,0.14c-0.02,0.02-0.03,0.03-0.05,0.05l-29.97,49.28c-0.13,0.21-0.19,0.44-0.21,0.68
	c0,0.02-0.02,0.03-0.02,0.05C171.16,193.86,171.19,193.89,171.19,193.93z M337.64,162.54c-0.5-0.54-1.31-0.65-1.95-0.29
	l-28.92,17.08l-28.91-17.08c-0.63-0.37-1.45-0.26-1.95,0.29c-0.5,0.55-0.55,1.36-0.12,1.97l29.71,41.86
	c0.02,0.03,0.06,0.04,0.08,0.07c0.06,0.07,0.12,0.14,0.19,0.2c0.03,0.03,0.05,0.07,0.09,0.1c0.03,0.02,0.07,0.01,0.1,0.03
	c0.05,0.03,0.09,0.07,0.15,0.1c0.2,0.1,0.42,0.16,0.66,0.16c0,0,0,0,0,0c0,0,0,0,0,0l0,0l0,0c0,0,0,0,0,0c0,0,0,0,0,0
	c0.24,0,0.46-0.06,0.66-0.16c0.06-0.03,0.1-0.07,0.15-0.1c0.03-0.02,0.07-0.01,0.1-0.03c0.04-0.02,0.06-0.07,0.09-0.1
	c0.07-0.06,0.13-0.13,0.19-0.2c0.02-0.03,0.06-0.04,0.08-0.07l29.72-41.86C338.2,163.91,338.14,163.09,337.64,162.54z
	 M315.31,260.92l-26.09,0.91l0.88-8.62l-16.9,0.78l-1.51,18.62l-22.61-1.6l1.34-18.31l-33.91-2.48l-0.41,11.82l-21.33,0.28
	l-1.91-15.68l-19.66-3.14c3.95,11.7,9.44,32.12,13.58,35.63c4.14,3.51,15.15,7.97,23.14,10.85l-2.32-13.24l28.4,2.13l1,13.3
	l42.03,0.6l2.2-16.29l24.66,1.16l-2.63,11.46c8.31-3.39,17.25-7.34,19.6-9.66c4.14-4.39,10.13-27.01,13.27-36.01l-19.26,3.14
	L315.31,260.92z M319.72,335.4h-16.26H287.2h-16.26h-16.26h-16.26h-16.26h-16.26h-16.26c-3.56,0-7.04-0.36-10.4-1.05
	c-3.36-0.69-6.6-1.7-9.69-3.01c-3.09-1.31-6.02-2.9-8.77-4.76c-2.75-1.86-5.3-3.97-7.64-6.3c-2.34-2.34-4.45-4.89-6.3-7.64
	c-1.86-2.75-3.45-5.68-4.76-8.77s-2.32-6.33-3.01-9.69c-0.69-3.36-1.05-6.84-1.05-10.4v-23.72v-23.72v-23.72v-80.54
	c0-6.61,1.63-13.12,4.75-18.95l14.73-27.5c4.89-6.37,14.48-6.37,19.37,0l16.52,30.85c1.27,2.36,4.66,2.36,5.92,0l16.52-30.85
	c4.89-6.37,14.48-6.37,19.37,0l16.52,30.85c1.27,2.36,4.66,2.36,5.92,0l16.52-30.85c4.89-6.37,14.48-6.37,19.37,0l16.52,30.85
	c1.27,2.36,4.66,2.36,5.92,0l16.52-30.85c4.89-6.37,14.48-6.37,19.37,0l14.73,27.5c3.12,5.83,4.75,12.34,4.75,18.95v80.54v23.72
	v23.72v23.72c0,3.56-0.36,7.04-1.05,10.4c-0.69,3.36-1.7,6.6-3.01,9.69s-2.9,6.02-4.76,8.77c-1.86,2.75-3.97,5.3-6.3,7.64
	c-2.34,2.34-4.89,4.45-7.64,6.3c-2.75,1.86-5.68,3.45-8.77,4.76c-3.09,1.31-6.33,2.32-9.69,3.01
	C326.76,335.04,323.29,335.4,319.72,335.4z M375.71,256.18l16.33,1l1-13.73l13.51,1l-1,39.75l-12.92-1l-1-13.08l-16.92-1
	L375.71,256.18z M133.64,271.48l-16.33-1v13.73l-14.51-2l2-38.75h14.92l-2,13.08l16.92,1L133.64,271.48z"/>
<g id="title">
	<path id="h" class="st1" d="M370.14,326.38c9.83,0,17.81,7.98,17.81,17.81v15.59l14.85-11.13c11.47,0,20.78,9.31,20.78,20.78V411
		h8.91l-5.94,17.81h-2.97c-9.83,0-17.81-7.98-17.81-17.81v-41.57c0-1.64-1.33-2.97-2.97-2.97h-14.85v59.38h-17.81V344.2h-8.91
		l5.94-17.81H370.14z"/>
	<path id="c" class="st1" d="M358.26,348.65l-5.94,17.81h-23.75v32.66c0,6.56,5.32,11.88,11.88,11.88h17.81l-11.88,17.81h-5.94
		c-16.39,0-29.69-13.3-29.69-29.69v-28.21l29.69-22.27H358.26z"/>
	<path id="r" class="st1" d="M254.35,348.65c7.22,0,13.44,4.3,16.24,10.48l10.48-10.48c11.47,0,20.78,9.31,20.78,20.78v5.94
		l-17.81,5.94v-11.88c0-1.64-1.33-2.97-2.97-2.97h-8.91v56.41l-17.81,5.94v-62.35h-8.91l5.94-17.81H254.35z"/>
	<path id="u" class="st1" d="M233.57,428.81c-7.76,0-14.36-4.97-16.8-11.89l-15.86,11.89c-11.47,0-20.78-9.31-20.78-20.78v-53.44
		l17.81-5.94v59.38c0,1.64,1.33,2.97,2.97,2.97h14.85v-59.38h17.81V411h8.91l-5.94,17.81H233.57z"/>
	<polygon id="L" class="st1" points="129.65,403.58 123.71,409.51 171.22,409.51 165.28,427.33 102.93,427.33 108.87,409.51 
		111.84,409.51 111.84,384.28 102.93,384.28 108.87,366.46 111.84,366.46 111.84,330.83 129.65,324.9 	"/>
</g>
</svg>
